<svg width="500" height="600" viewBox="0 0 500 600" xmlns="http://www.w3.org/2000/svg">
  <defs>
    <linearGradient id="tireGradient" x1="0%" y1="0%" x2="100%" y2="0%">
      <stop offset="0%" style="stop-color:#333;stop-opacity:1" />
      <stop offset="20%" style="stop-color:#111;stop-opacity:1" />
      <stop offset="50%" style="stop-color:#000;stop-opacity:1" />
      <stop offset="80%" style="stop-color:#111;stop-opacity:1" />
      <stop offset="100%" style="stop-color:#333;stop-opacity:1" />
    </linearGradient>
    <linearGradient id="chassisGradient" x1="0%" y1="0%" x2="100%" y2="100%">
      <stop offset="0%" style="stop-color:#2a2a2a;stop-opacity:1" />
      <stop offset="100%" style="stop-color:#111;stop-opacity:1" />
    </linearGradient>
    <pattern id="treadPattern" x="0" y="0" width="10" height="10" patternUnits="userSpaceOnUse">
       <path d="M 0 0 L 10 5 L 0 10" fill="none" stroke="#333" stroke-width="2"/>
    </pattern>
  </defs>

  <g transform="translate(40, 100)">
    <rect width="60" height="100" rx="5" fill="url(#tireGradient)" />
    <rect x="10" y="0" width="40" height="100" fill="url(#treadPattern)" opacity="0.3"/>
    <rect x="60" y="35" width="10" height="30" fill="#FFD700" /> </g>
  <g transform="translate(400, 100)">
    <rect width="60" height="100" rx="5" fill="url(#tireGradient)" />
    <rect x="10" y="0" width="40" height="100" fill="url(#treadPattern)" opacity="0.3"/>
    <rect x="-10" y="35" width="10" height="30" fill="#FFD700" /> </g>
  <g transform="translate(40, 350)">
    <rect width="60" height="100" rx="5" fill="url(#tireGradient)" />
    <rect x="10" y="0" width="40" height="100" fill="url(#treadPattern)" opacity="0.3"/>
    <rect x="60" y="35" width="10" height="30" fill="#FFD700" />
  </g>
  <g transform="translate(400, 350)">
    <rect width="60" height="100" rx="5" fill="url(#tireGradient)" />
    <rect x="10" y="0" width="40" height="100" fill="url(#treadPattern)" opacity="0.3"/>
    <rect x="-10" y="35" width="10" height="30" fill="#FFD700" />
  </g>

  <rect x="100" y="120" width="40" height="60" fill="#FFD700" opacity="0.8" rx="2" />
  <rect x="360" y="120" width="40" height="60" fill="#FFD700" opacity="0.8" rx="2" />
  <rect x="100" y="370" width="40" height="60" fill="#FFD700" opacity="0.8" rx="2" />
  <rect x="360" y="370" width="40" height="60" fill="#FFD700" opacity="0.8" rx="2" />

  <path d="M 140 50 L 360 50 C 390 50 390 100 390 100 L 390 500 C 390 520 370 540 350 540 L 150 540 C 130 540 110 520 110 500 L 110 100 C 110 100 110 50 140 50 Z" 
        fill="url(#chassisGradient)" stroke="#444" stroke-width="2" />

  <circle cx="130" cy="80" r="3" fill="#silver" />
  <circle cx="370" cy="80" r="3" fill="#silver" />
  <circle cx="130" cy="520" r="3" fill="#silver" />
  <circle cx="370" cy="520" r="3" fill="#silver" />

  <rect x="150" y="380" width="200" height="120" rx="5" fill="#111" stroke="#333" />
  <text x="250" y="445" font-family="Arial" font-size="14" fill="#333" text-anchor="middle" font-weight="bold">BATTERY</text>
  <path d="M 350 440 C 380 440 380 300 320 280" fill="none" stroke="red" stroke-width="2" />

  <rect x="160" y="180" width="180" height="180" rx="4" fill="#222" stroke="#555" />
  <rect x="340" y="200" width="15" height="20" fill="#ccc" />
  <rect x="340" y="230" width="15" height="15" fill="#000" stroke="#444" />
  <rect x="180" y="200" width="60" height="10" fill="#eee" />
  <rect x="180" y="220" width="60" height="10" fill="#eee" />
  <rect x="180" y="240" width="60" height="10" fill="#eee" />
  <path d="M 200 200 Q 180 150 210 120" fill="none" stroke="#222" stroke-width="2" />
  <path d="M 220 200 Q 200 160 220 120" fill="none" stroke="#222" stroke-width="2" />
  <path d="M 240 200 Q 250 150 230 120" fill="none" stroke="#222" stroke-width="2" />

  <rect x="225" y="90" width="50" height="30" rx="2" fill="#007bff" stroke="#0056b3" />
  <circle cx="250" cy="105" r="5" fill="#fff" />

  <g transform="translate(210, 120)">
     <rect x="0" y="0" width="80" height="8" fill="#111" stroke="#444" />
     <rect x="35" y="-5" width="10" height="5" fill="#222" />
     <circle cx="40" cy="-2" r="2" fill="#333" />
  </g>

  <rect x="210" y="60" width="80" height="15" fill="#333" />
  <circle cx="230" cy="55" r="12" fill="#ccc" stroke="#999" stroke-width="2" />
  <circle cx="270" cy="55" r="12" fill="#ccc" stroke="#999" stroke-width="2" />
  <circle cx="230" cy="55" r="8" fill="none" stroke="#aaa" stroke-width="1" />
  <circle cx="270" cy="55" r="8" fill="none" stroke="#aaa" stroke-width="1" />

</svg>